<svg id="Layer_1" data-name="Layer 1" xmlns="http://www.w3.org/2000/svg" viewBox="0 0 1966.11 482.65"><defs><style>.cls-1{fill:#00666f;}</style></defs><g id="Layer_2" data-name="Layer 2"><g id="Layer_1-2" data-name="Layer 1-2"><path class="cls-1" d="M230,346.33l-90.22,3.15L133.2,370c-7.67,23.77-17.42,34.64-42.91,35.53-23,.8-31.82-7.38-32.29-20.38-.17-4.86.86-10.16,3.84-17.56L137.55,168.9c7.78-20.92,17.11-32.19,43-33.09,26.3-.92,35.19,10.11,44,30.05L311.1,359.3c2.67,6.79,4,11.6,4.2,16.06.51,14.56-10.55,22.64-33.61,23.44-24.27.85-33.06-7.35-43.25-32.11Zm-71.94-53.39,50.16-1.75L180.8,224.11Z"/><path class="cls-1" d="M504.42,365.51c-26.87,19.17-63.41,28.54-112.36,30.25-32.77,1.15-49.48-1.91-59.75-6-17.26-7.1-19.68-18.35-20.26-34.94l-6.26-179.24c-.76-21.84,3.28-33.73,31.37-41.19,12.44-3.27,32.2-6,57.28-6.86,38.84-1.36,75.42,2.22,104.84,21,26.93,17.33,50.32,49.33,52.29,105.58C553.63,313.16,530.5,346.77,504.42,365.51ZM384.18,332.44s7.71.54,16.62.23c24.27-.85,78.69-8.42,76.44-72.74-1-27.92-11.75-46.58-25.48-57s-30.86-13.5-52.7-12.74a134,134,0,0,0-19.78,1.92Z"/><path class="cls-1" d="M687.61,114.86c85.76-3,141.59,53,144.33,131.46S781.28,384.6,695.51,387.59s-141.6-53-144.34-131.46S601.84,117.86,687.61,114.86Zm6.49,209.19c40-1.4,65-29,63.4-75.13S729.07,177,689,178.4s-65,29-63.4,75.13S654.05,325.45,694.1,324.05Z"/><path class="cls-1" d="M918.28,288.68c-7.28.25-13.36.06-13.36.06l1.68,48.14c.45,13,.76,21.85-4.65,29.33-5,7.46-14.18,11.43-30,12s-25.21-2.76-30.72-9.86c-5.92-7.09-6.23-16-6.68-28.94l-6.29-181.3c-.51-14.56-1.06-30.34,21.7-39.65,11.58-4.85,30.51-8,54.79-8.79,26.29-.92,57.54.82,83.16,15.32,24,13.74,38.93,35.9,40.07,68.68C1030.1,254.39,982.61,286.43,918.28,288.68ZM903,232.91a75.63,75.63,0,0,0,11.36.41c22.25-.77,40.95-10.34,40.15-33.4-.74-21-17.26-30.18-40.72-29.36a111.88,111.88,0,0,0-12.92,1.26Z"/><path class="cls-1" d="M1171.79,327.62c.46,12.94.77,21.85-4.64,29.33s-14.59,11.44-30.77,12-25.62-2.75-31.54-9.84-6.23-16-6.68-28.93l-5.48-157-34.79,1.22c-13,.45-21.85.76-29.31-4.25-7.46-4.6-11.39-13-11.9-27.53s2.83-23.19,10-28.3c7.09-5.51,16-5.82,28.94-6.28l143.22-5c12.94-.45,21.85-.76,29.31,4.25,7.45,4.6,11.39,13,11.9,27.53s-2.84,23.19-10,28.3c-7.1,5.51-16,5.82-29,6.28l-34.79,1.21Z"/><path class="cls-1" d="M1516.52,130.87c12.77-28.8,23.22-42.53,52-43.53,13.35-.47,24,2,31.55,10.24,6.74,7.46,8.23,15.51,10.43,32l24.17,181.84c.58,4.84,1.19,10.89,1.31,14.13.59,17-10,26.27-34.7,27.13-26.3.92-37.17-8.82-39.47-28.19l-13.4-128.74-41.88,111.64c-5.57,14.37-12.88,25.56-34.32,26.31s-29.11-9.92-35.67-23.87L1387,201l-4.78,129.79c-1,18.66-9.9,29.91-36.6,30.84-22.66.79-35.06-6.47-35.72-25.48-.13-3.65.09-8.92.63-16.63l12-179.86c1-17.45,1.9-26.8,10.13-34.79,6.26-6.29,15.85-9.86,30.82-10.39,29.94-1,41.31,11.52,56.07,39.76l51.67,99.06Z"/><path class="cls-1" d="M1714.44,179.46l38-1.33c12.94-.45,21.84-.76,29.29,3.84s11.37,12.16,11.85,25.91c.46,13.35-2.91,21.17-10,26.28s-16,5.42-29,5.87l-38,1.33,1.51,43.29,60.68-2.12c13-.46,21.85-.77,29.3,3.83s11.37,12.16,11.85,25.92c.46,13.35-2.91,21.16-10,26.27s-16,5.42-29,5.87l-96.29,3.37c-25.08.87-34.71-8.11-35.59-33.19L1642.32,122c-.88-25.09,8.1-34.72,33.18-35.6l89-3.1c13-.46,21.84-.77,29.3,3.84s11.36,12.15,11.84,25.91c.46,13.35-2.91,21.17-10,26.28s-16,5.42-29,5.87l-53.33,1.88Z"/><path class="cls-1" d="M1869.43,344.58c-23.87.83-40.63-15.19-41.45-38.66-.83-23.87,14.77-41,38.64-41.86s40.63,15.19,41.46,39.06C1908.9,326.59,1893.3,343.74,1869.43,344.58Zm-39-131.91c-1.38-16.55-4.94-83.67-5.52-100.26-.33-9.3-.19-17,4.86-23.26,5.42-7.07,15.8-11.48,30.36-12s25.23,3.16,31.13,9.85c5.47,5.88,6.15,13.55,6.47,22.86.58,16.59,1.71,83.79,1.48,100.4s-5.83,30.18-33.34,31.14-34.09-12.17-35.48-28.73Z"/></g></g></svg>